<svg width="135" height="40" viewBox="0 0 135 40" fill="none" xmlns="http://www.w3.org/2000/svg">
<path d="M134.105 35.278C134.105 35.7815 134.006 36.28 133.813 36.745C133.62 37.21 133.337 37.6325 132.981 37.9882C132.625 38.3442 132.202 38.6262 131.736 38.8185C131.271 39.0107 130.772 39.1095 130.269 39.109H4.73171C3.71423 39.11 2.73798 38.707 2.01766 37.9887C1.29735 37.2702 0.891953 36.2952 0.890625 35.278V4.72645C0.89195 3.70877 1.29719 2.73322 2.01736 2.01399C2.73753 1.29476 3.71375 0.890646 4.73171 0.890381H130.268C130.772 0.890381 131.27 0.989611 131.736 1.1824C132.201 1.3752 132.624 1.65777 132.981 2.014C133.337 2.37022 133.619 2.79312 133.812 3.25852C134.005 3.72392 134.104 4.22274 134.104 4.72645L134.105 35.278Z" fill="white"/>
<path d="M130.269 40.0001H4.73156C3.47813 39.9998 2.27601 39.5026 1.38896 38.6171C0.501909 37.7318 0.00238492 36.5308 0 35.2778V4.72731C0.00185426 3.47361 0.501049 2.27181 1.38807 1.38558C2.2751 0.499356 3.47751 0.00105818 4.73156 0H130.268C131.522 0.00158619 132.724 0.500054 133.611 1.38617C134.497 2.27228 134.997 3.47376 134.999 4.72731V35.2778C135.001 37.8826 132.875 40.0001 130.269 40.0001Z" fill="#A6A6A6"/>
<path d="M134.105 35.278C134.105 35.7815 134.006 36.28 133.813 36.745C133.62 37.21 133.337 37.6325 132.981 37.9882C132.625 38.3442 132.202 38.6262 131.736 38.8185C131.271 39.0107 130.772 39.1095 130.269 39.109H4.73171C3.71423 39.11 2.73798 38.707 2.01766 37.9887C1.29735 37.2702 0.891953 36.2952 0.890625 35.278V4.72645C0.89195 3.70877 1.29719 2.73322 2.01736 2.01399C2.73753 1.29476 3.71375 0.890646 4.73171 0.890381H130.268C130.772 0.890381 131.27 0.989611 131.736 1.1824C132.201 1.3752 132.624 1.65777 132.981 2.014C133.337 2.37022 133.619 2.79312 133.812 3.25852C134.005 3.72392 134.104 4.22274 134.104 4.72645L134.105 35.278Z" fill="black"/>
<path d="M30.1443 19.7895C30.1153 16.5656 32.7848 14.9972 32.9068 14.9242C31.395 12.7206 29.0518 12.4195 28.2283 12.3955C26.2603 12.1884 24.3512 13.5728 23.3486 13.5728C22.3261 13.5728 20.7822 12.4155 19.1183 12.4495C16.9772 12.4825 14.9741 13.7218 13.8755 15.6464C11.6083 19.5705 13.2992 25.3371 15.4714 28.5088C16.558 30.0633 17.8277 31.7969 19.4895 31.7359C21.1154 31.6699 21.7228 30.7006 23.6848 30.7006C25.6288 30.7006 26.1993 31.7359 27.894 31.6969C29.639 31.6699 30.7375 30.1363 31.7863 28.5688C33.0418 26.7893 33.546 25.0351 33.5663 24.9449C33.526 24.9309 30.1783 23.6526 30.1443 19.7895ZM26.9425 10.3089C27.817 9.21558 28.4153 7.72818 28.2493 6.21875C26.9835 6.27478 25.4008 7.094 24.4893 8.1633C23.6828 9.10556 22.9624 10.65 23.1485 12.1024C24.5703 12.2084 26.03 11.3852 26.9425 10.3089Z" fill="white"/>
<path d="M130.269 0H63.0273L89.3646 40.0001H130.269C131.522 39.9991 132.724 39.5011 133.611 38.6151C134.498 37.7293 134.998 36.5281 135 35.2748V4.72731C134.998 3.47368 134.499 2.27204 133.612 1.38588C132.725 0.499706 131.523 0.00132228 130.269 0Z" fill="url(#paint0_linear_987:49)"/>
<path d="M53.6941 31.5127H51.4219L50.1771 27.6025H45.8509L44.6651 31.5127H42.4531L46.7404 18.201H49.3876L53.6941 31.5127ZM49.8019 25.9622L48.6764 22.4861C48.5574 22.131 48.3331 21.2948 48.0051 19.9785H47.9649C47.8329 20.5446 47.6219 21.3808 47.3326 22.4861L46.2261 25.9622H49.8019ZM64.6982 26.5952C64.6982 28.2277 64.2549 29.518 63.3674 30.4655C62.5729 31.3085 61.5854 31.7297 60.4077 31.7297C59.1362 31.7297 58.2217 31.2765 57.6662 30.3682V35.4047H55.5332V25.069C55.5332 24.0436 55.5062 22.9923 55.4542 21.914H57.3302L57.4492 23.4354H57.4892C58.2007 22.2891 59.2802 21.7159 60.7289 21.7159C61.8614 21.7159 62.8069 22.1631 63.5634 23.0583C64.3189 23.9556 64.6982 25.134 64.6982 26.5952ZM62.5249 26.6732C62.5249 25.739 62.3147 24.9688 61.8924 24.3617C61.4312 23.7305 60.8119 23.4144 60.0354 23.4144C59.5092 23.4144 59.0309 23.5904 58.6037 23.9375C58.1754 24.2876 57.8954 24.7448 57.7644 25.311C57.7059 25.5227 57.6727 25.7405 57.6652 25.9602V27.5615C57.6652 28.2587 57.8794 28.848 58.3077 29.33C58.7359 29.8102 59.2922 30.0512 59.9764 30.0512C60.7799 30.0512 61.4052 29.7402 61.8524 29.123C62.3007 28.5037 62.5249 27.6875 62.5249 26.6732ZM75.7409 26.5952C75.7409 28.2277 75.2977 29.518 74.4104 30.4655C73.6149 31.3085 72.6284 31.7297 71.4497 31.7297C70.1779 31.7297 69.2634 31.2765 68.7082 30.3682V35.4047H66.5752V25.069C66.5752 24.0436 66.5482 22.9923 66.4959 21.914H68.3719L68.4912 23.4354H68.5312C69.2414 22.2891 70.3212 21.7159 71.7709 21.7159C72.9024 21.7159 73.8479 22.1631 74.6064 23.0583C75.3609 23.9556 75.7409 25.134 75.7409 26.5952ZM73.5669 26.6732C73.5669 25.739 73.3557 24.9688 72.9334 24.3617C72.4722 23.7305 71.8549 23.4144 71.0784 23.4144C70.5522 23.4144 70.0739 23.5904 69.6447 23.9375C69.2164 24.2876 68.9374 24.7448 68.8062 25.311C68.7412 25.575 68.7062 25.79 68.7062 25.9602V27.5615C68.7062 28.2587 68.9214 28.848 69.3477 29.33C69.7757 29.8092 70.3322 30.0512 71.0184 30.0512C71.8229 30.0512 72.4482 29.7402 72.8944 29.123C73.3427 28.5037 73.5669 27.6875 73.5669 26.6732ZM88.0877 27.7787C88.0877 28.912 87.6915 29.8332 86.904 30.5445C86.0377 31.3205 84.828 31.7097 83.2772 31.7097C81.8445 31.7097 80.6957 31.4337 79.8292 30.8805L80.3225 29.103C81.258 29.6572 82.2857 29.9332 83.4042 29.9332C84.2087 29.9332 84.834 29.7512 85.2802 29.39C85.7275 29.028 85.9535 28.5437 85.9535 27.9397C85.9535 27.3985 85.7665 26.9455 85.3992 26.5762C85.03 26.2082 84.4197 25.865 83.5622 25.55C81.231 24.6807 80.0644 23.4094 80.0644 21.7369C80.0644 20.6446 80.4767 19.7504 81.299 19.0512C82.1215 18.353 83.2122 18.0039 84.5687 18.0039C85.7805 18.0039 86.79 18.215 87.5915 18.6361L87.0562 20.3746C86.3017 19.9665 85.4502 19.7624 84.4977 19.7624C83.7455 19.7624 83.155 19.9474 82.7327 20.3155C82.3777 20.6446 82.1975 21.0458 82.1975 21.5219C82.1975 22.047 82.4027 22.4831 82.811 22.8252C83.165 23.1403 83.8115 23.4834 84.746 23.8515C85.8925 24.3136 86.735 24.8518 87.2742 25.47C87.8175 26.0882 88.0877 26.8595 88.0877 27.7787ZM95.1585 23.5144H92.8072V28.1747C92.8072 29.36 93.2215 29.9512 94.052 29.9512C94.4332 29.9512 94.7492 29.9192 94.9995 29.8522L95.0585 31.4717C94.6382 31.6287 94.085 31.7077 93.3997 31.7077C92.5572 31.7077 91.8987 31.4507 91.4235 30.9365C90.9502 30.4222 90.7122 29.5612 90.7122 28.3487V23.5104H89.3115V21.91H90.7122V20.1525L92.8072 19.5203V21.91H95.1585V23.5144ZM105.746 26.6342C105.746 28.1097 105.324 29.321 104.481 30.2682C103.6 31.2435 102.427 31.7297 100.966 31.7297C99.555 31.7297 98.4332 31.2625 97.597 30.3292C96.7605 29.394 96.3422 28.2157 96.3422 26.7942C96.3422 25.307 96.7745 24.0886 97.636 23.1413C98.4995 22.1931 99.662 21.7189 101.124 21.7189C102.532 21.7189 103.664 22.1871 104.521 23.1213C105.339 24.0276 105.746 25.198 105.746 26.6342ZM103.535 26.6832C103.535 25.804 103.345 25.05 102.964 24.4187C102.516 23.6565 101.876 23.2754 101.047 23.2754C100.192 23.2754 99.537 23.6565 99.0907 24.4187C98.7085 25.05 98.5185 25.817 98.5185 26.7232C98.5185 27.6035 98.7085 28.3597 99.0907 28.989C99.552 29.7512 100.195 30.1322 101.029 30.1322C101.844 30.1322 102.484 29.7432 102.946 28.97C103.338 28.3237 103.535 27.5645 103.535 26.6832ZM112.683 23.7895C112.461 23.7495 112.236 23.7297 112.011 23.7305C111.26 23.7305 110.68 24.0126 110.272 24.5807C109.918 25.081 109.74 25.713 109.74 26.4762V31.5127H107.606V24.9368C107.608 23.9292 107.588 22.9217 107.544 21.915H109.402L109.48 23.7515H109.539C109.766 23.1203 110.12 22.6112 110.606 22.2301C111.051 21.8971 111.592 21.7167 112.148 21.7159C112.345 21.7159 112.523 21.7299 112.681 21.7549L112.683 23.7895ZM122.223 26.2592C122.229 26.5835 122.203 26.9072 122.145 27.2265H115.746C115.77 28.1747 116.08 28.901 116.674 29.401C117.214 29.8472 117.911 30.0712 118.767 30.0712C119.715 30.0712 120.579 29.9212 121.357 29.6182L121.691 31.0975C120.783 31.4937 119.71 31.6907 118.472 31.6907C116.983 31.6907 115.815 31.2525 114.964 30.3782C114.116 29.503 113.691 28.3267 113.691 26.8535C113.691 25.407 114.086 24.2016 114.877 23.2404C115.706 22.2141 116.825 21.7009 118.234 21.7009C119.618 21.7009 120.665 22.2141 121.377 23.2404C121.94 24.0536 122.223 25.062 122.223 26.2592ZM120.189 25.706C120.204 25.073 120.064 24.5277 119.775 24.0666C119.406 23.4724 118.837 23.1763 118.076 23.1763C117.379 23.1763 116.81 23.4654 116.378 24.0456C116.023 24.5067 115.812 25.061 115.747 25.704L120.189 25.706Z" fill="white"/>
<path d="M45.2354 13.4949C44.6422 13.4949 44.1289 13.4658 43.7017 13.4168V6.98106C44.2992 6.88878 44.9032 6.84328 45.5077 6.84503C47.9539 6.84503 49.0807 8.04836 49.0807 10.0099C49.0807 12.2725 47.7499 13.4949 45.2354 13.4949ZM45.5937 7.67026C45.2637 7.67026 44.9824 7.69026 44.7492 7.73826V12.6306C44.8754 12.6506 45.1174 12.6596 45.4577 12.6596C47.0604 12.6596 47.9729 11.7474 47.9729 10.0389C47.9729 8.51549 47.1477 7.67026 45.5937 7.67026ZM52.5914 13.5439C51.2127 13.5439 50.3192 12.5146 50.3192 11.1172C50.3192 9.66081 51.2317 8.62251 52.6694 8.62251C54.0282 8.62251 54.9417 9.60279 54.9417 11.0402C54.9417 12.5146 54.0002 13.5439 52.5914 13.5439ZM52.6314 9.38874C51.8742 9.38874 51.3889 10.0969 51.3889 11.0872C51.3889 12.0585 51.8842 12.7667 52.6214 12.7667C53.3589 12.7667 53.8542 12.0094 53.8542 11.0672C53.8542 10.1069 53.3689 9.38874 52.6314 9.38874ZM62.8039 8.71954L61.3282 13.4368H60.3667L59.7554 11.3883C59.6034 10.8872 59.4769 10.3787 59.3762 9.86486H59.3562C59.2792 10.379 59.1329 10.8941 58.9779 11.3883L58.3277 13.4368H57.3562L55.9674 8.71954H57.0449L57.5792 10.9622C57.7052 11.4963 57.8114 12.0004 57.8994 12.4766H57.9194C57.9964 12.0795 58.1224 11.5833 58.3077 10.9722L58.9779 8.72054H59.8324L60.4737 10.9241C60.6289 11.4583 60.7549 11.9824 60.8529 12.4776H60.8809C60.9489 11.9924 61.0562 11.4773 61.2012 10.9241L61.7744 8.72054L62.8039 8.71954ZM68.237 13.4368H67.1885V10.7281C67.1885 9.89386 66.8682 9.47574 66.237 9.47574C65.6155 9.47574 65.1885 10.0099 65.1885 10.6311V13.4368H64.1397V10.0679C64.1397 9.65079 64.1297 9.20366 64.1007 8.71854H65.0232L65.0722 9.44674H65.1012C65.3835 8.94261 65.9557 8.62251 66.5972 8.62251C67.5877 8.62251 68.238 9.37971 68.238 10.6121L68.237 13.4368ZM71.1285 13.4368H70.079V6.55493H71.1285V13.4368ZM74.9517 13.5439C73.574 13.5439 72.6795 12.5146 72.6795 11.1172C72.6795 9.66081 73.592 8.62251 75.0287 8.62251C76.3885 8.62251 77.301 9.60279 77.301 11.0402C77.302 12.5146 76.3595 13.5439 74.9517 13.5439ZM74.9907 9.38874C74.2332 9.38874 73.748 10.0969 73.748 11.0872C73.748 12.0585 74.2442 12.7667 74.9797 12.7667C75.718 12.7667 76.2122 12.0094 76.2122 11.0672C76.2132 10.1069 75.729 9.38874 74.9907 9.38874ZM81.4352 13.4368L81.359 12.8937H81.331C81.011 13.3308 80.5437 13.5439 79.9512 13.5439C79.106 13.5439 78.5055 12.9517 78.5055 12.1555C78.5055 10.9912 79.515 10.389 81.263 10.389V10.302C81.263 9.68081 80.934 9.36971 80.2835 9.36971C79.8182 9.36971 79.41 9.48676 79.0507 9.71981L78.8377 9.03064C79.274 8.75856 79.8182 8.62251 80.4575 8.62251C81.6902 8.62251 82.3125 9.27269 82.3125 10.5741V12.3115C82.3125 12.7877 82.3337 13.1568 82.3807 13.4378L81.4352 13.4368ZM81.291 11.0872C80.1265 11.0872 79.5422 11.3693 79.5422 12.0385C79.5422 12.5336 79.8432 12.7757 80.2615 12.7757C80.7947 12.7757 81.291 12.3685 81.291 11.8154V11.0872ZM87.4042 13.4368L87.3553 12.6796H87.3262C87.0252 13.2518 86.519 13.5439 85.8115 13.5439C84.674 13.5439 83.8315 12.5436 83.8315 11.1362C83.8315 9.66081 84.705 8.62151 85.8975 8.62151C86.529 8.62151 86.9762 8.83456 87.2282 9.26269H87.2492V6.55493H88.2988V12.1655C88.2988 12.6216 88.3098 13.0487 88.3378 13.4368H87.4042ZM87.2492 10.6611C87.2492 10.0009 86.812 9.43774 86.1447 9.43774C85.3672 9.43774 84.892 10.1269 84.892 11.0972C84.892 12.0485 85.3852 12.6996 86.1237 12.6996C86.783 12.6996 87.2492 12.1265 87.2492 11.4473V10.6611ZM94.9535 13.5439C93.5758 13.5439 92.6823 12.5146 92.6823 11.1172C92.6823 9.66081 93.5948 8.62251 95.0315 8.62251C96.3913 8.62251 97.3038 9.60279 97.3038 11.0402C97.3048 12.5146 96.3633 13.5439 94.9535 13.5439ZM94.9925 9.38874C94.236 9.38874 93.7508 10.0969 93.7508 11.0872C93.7508 12.0585 94.246 12.7667 94.9825 12.7667C95.7208 12.7667 96.2153 12.0094 96.2153 11.0672C96.2173 10.1069 95.7318 9.38874 94.9925 9.38874ZM102.943 13.4368H101.893V10.7281C101.893 9.89386 101.573 9.47574 100.942 9.47574C100.32 9.47574 99.894 10.0099 99.894 10.6311V13.4368H98.8445V10.0679C98.8445 9.65079 98.8345 9.20366 98.8055 8.71854H99.728L99.777 9.44674H99.806C100.087 8.94261 100.661 8.62151 101.301 8.62151C102.292 8.62151 102.943 9.37871 102.943 10.6111V13.4368ZM109.998 9.50576H108.844V11.7964C108.844 12.3795 109.046 12.6706 109.454 12.6706C109.639 12.6706 109.795 12.6506 109.92 12.6216L109.949 13.4178C109.746 13.4959 109.473 13.5349 109.135 13.5349C108.309 13.5349 107.815 13.0787 107.815 11.8844V9.50576H107.126V8.71954H107.815V7.85531L108.844 7.54421V8.71854H109.998V9.50576ZM115.549 13.4368H114.501V10.7481C114.501 9.90386 114.182 9.47676 113.55 9.47676C113.006 9.47676 112.5 9.84586 112.5 10.5931V13.4368H111.452V6.55493H112.5V9.38874H112.521C112.851 8.87459 113.329 8.62151 113.94 8.62151C114.938 8.62151 115.549 9.39774 115.549 10.6311V13.4368ZM121.236 11.3303H118.089C118.109 12.2235 118.7 12.7276 119.576 12.7276C120.041 12.7276 120.469 12.6496 120.848 12.5046L121.011 13.2328C120.564 13.4268 120.039 13.5239 119.428 13.5239C117.952 13.5239 117.079 12.5916 117.079 11.1462C117.079 9.69981 117.973 8.61251 119.31 8.61251C120.515 8.61251 121.272 9.50576 121.272 10.8551C121.279 11.0144 121.266 11.1739 121.236 11.3303ZM120.274 10.5831C120.274 9.85486 119.907 9.34071 119.237 9.34071C118.634 9.34071 118.158 9.86486 118.09 10.5831H120.274Z" fill="white"/>
<defs>
<linearGradient id="paint0_linear_987:49" x1="99.0127" y1="40.1063" x2="99.0127" y2="-104.153" gradientUnits="userSpaceOnUse">
<stop stop-color="#1A1A1A" stop-opacity="0.1"/>
<stop offset="0.123" stop-color="#212121" stop-opacity="0.151"/>
<stop offset="0.308" stop-color="#353535" stop-opacity="0.227"/>
<stop offset="0.532" stop-color="#575757" stop-opacity="0.318"/>
<stop offset="0.783" stop-color="#858585" stop-opacity="0.421"/>
<stop offset="1" stop-color="#B3B3B3" stop-opacity="0.51"/>
</linearGradient>
</defs>
</svg>
